<?xml version="1.0" encoding="UTF-8" standalone="no"?>
<!-- Created with Inkscape (http://www.inkscape.org/) -->

<svg
   xmlns:dc="http://purl.org/dc/elements/1.1/"
   xmlns:cc="http://creativecommons.org/ns#"
   xmlns:rdf="http://www.w3.org/1999/02/22-rdf-syntax-ns#"
   xmlns:svg="http://www.w3.org/2000/svg"
   xmlns="http://www.w3.org/2000/svg"
   xmlns:sodipodi="http://sodipodi.sourceforge.net/DTD/sodipodi-0.dtd"
   xmlns:inkscape="http://www.inkscape.org/namespaces/inkscape"
   id="svg4155"
   version="1.1"
   inkscape:version="0.91 r13725"
   xml:space="preserve"
   width="504.38876"
   height="504.38751"
   viewBox="0 0 504.38876 504.38751"
   sodipodi:docname="ce_logo_brown.svg"><metadata
     id="metadata4161"><rdf:RDF><cc:Work
         rdf:about=""><dc:format>image/svg+xml</dc:format><dc:type
           rdf:resource="http://purl.org/dc/dcmitype/StillImage" /><dc:title></dc:title></cc:Work></rdf:RDF></metadata><defs
     id="defs4159"><clipPath
       clipPathUnits="userSpaceOnUse"
       id="clipPath4169"><path
         d="M 0,600 864,600 864,0 0,0 0,600 Z"
         id="path4171"
         inkscape:connector-curvature="0" /></clipPath></defs><sodipodi:namedview
     pagecolor="#ffffff"
     bordercolor="#666666"
     borderopacity="1"
     objecttolerance="10"
     gridtolerance="10"
     guidetolerance="10"
     inkscape:pageopacity="0"
     inkscape:pageshadow="2"
     inkscape:window-width="1366"
     inkscape:window-height="680"
     id="namedview4157"
     showgrid="false"
     fit-margin-top="0"
     fit-margin-left="0"
     fit-margin-right="0"
     fit-margin-bottom="0"
     inkscape:zoom="0.34460951"
     inkscape:cx="252.19437"
     inkscape:cy="96.180895"
     inkscape:window-x="0"
     inkscape:window-y="31"
     inkscape:window-maximized="1"
     inkscape:current-layer="g4167" /><g
     id="g4163"
     inkscape:groupmode="layer"
     inkscape:label="CE Logo New Baskerville Portrait B&amp;W"
     transform="matrix(1.25,0,0,-1.25,-286.55562,717.20287)"><g
       id="g4165"><g
         id="g4167"
         clip-path="url(#clipPath4169)"><g
           id="g4285"
           transform="translate(354.9897,372.0078)"
           style="fill:#552200"><path
             d="m 0,0 74.773,-74.773 0,-90.658 L -90.657,0 74.773,165.43 74.773,74.773 0,0 Z"
             style="fill:#513127;fill-opacity:1;fill-rule:evenodd;stroke:none"
             id="path4287"
             inkscape:connector-curvature="0" /></g><g
           id="g4289"
           transform="translate(432.1211,206.5771)"><path
             d="m 0,0 0,90.657 43.853,43.855 -43.737,0 0,61.838 43.737,0 L 0,240.203 0,330.861 165.43,165.431 0,0 Z"
             style="fill:#513127;fill-opacity:1;fill-rule:evenodd;stroke:none"
             id="path4291"
             inkscape:connector-curvature="0" /></g><g
           id="g4293"
           transform="translate(273.1045,380.7793)"><path
             d="M 0,0 -43.86,43.86 -26.316,61.404 17.544,17.544 0,0 Z m 131.58,131.58 -43.861,43.86 17.545,17.543 43.86,-43.859 L 131.58,131.58 Z M 26.316,26.316 -17.544,70.176 0,87.72 43.86,43.86 26.316,26.316 Z m 26.316,26.316 -43.86,43.86 17.544,17.544 43.86,-43.86 -17.544,-17.544 z m 26.316,26.316 -43.861,43.86 17.545,17.544 43.86,-43.86 -17.544,-17.544 z m 26.316,26.316 -43.861,43.86 17.545,17.543 43.86,-43.859 -17.544,-17.544 z m 105.263,-315.791 -43.86,43.86 17.544,17.543 43.86,-43.859 -17.544,-17.544 z m 131.579,131.579 -43.859,43.861 17.544,17.543 43.86,-43.859 -17.545,-17.545 z m -105.263,-105.263 -43.86,43.859 17.544,17.544 43.861,-43.859 -17.545,-17.544 z m 26.316,26.315 -43.86,43.861 17.544,17.543 43.86,-43.86 -17.544,-17.544 z m 26.316,26.317 -43.86,43.86 17.544,17.543 43.861,-43.859 -17.545,-17.544 z m 26.316,26.315 -43.86,43.861 17.544,17.543 43.86,-43.859 -17.544,-17.545 z M 315.791,0 298.247,17.544 342.106,61.404 359.651,43.86 315.791,0 Z m -131.58,131.58 -17.544,17.544 43.86,43.859 17.544,-17.543 -43.86,-43.86 z M 289.475,26.316 271.931,43.86 l 43.86,43.86 17.544,-17.544 -43.86,-43.86 z m -26.316,26.316 -17.544,17.544 43.86,43.86 17.545,-17.544 -43.861,-43.86 z m -26.316,26.316 -17.544,17.544 43.86,43.86 17.544,-17.544 -43.86,-43.86 z m -26.316,26.316 -17.544,17.544 43.86,43.859 17.545,-17.543 -43.861,-43.86 z m -105.263,-315.791 -17.545,17.544 43.861,43.859 17.544,-17.543 -43.86,-43.86 z M -26.316,-78.948 -43.86,-61.403 0,-17.544 17.544,-35.087 -26.316,-78.948 Z m 105.264,-105.263 -17.545,17.544 43.861,43.859 17.544,-17.544 -43.86,-43.859 z m -26.316,26.315 -17.545,17.544 43.861,43.86 17.544,-17.543 -43.86,-43.861 z m -26.316,26.317 -17.544,17.544 43.86,43.859 17.544,-17.543 -43.86,-43.86 z M 0,-105.264 -17.544,-87.719 26.316,-43.86 43.86,-61.403 0,-105.264 Z"
             style="fill:#694d45;fill-opacity:1;fill-rule:nonzero;stroke:none"
             id="path4295"
             inkscape:connector-curvature="0" /></g><g
           id="g4301"
           transform="translate(391.6348,44.6064)" /><g
           id="g4305"
           transform="translate(423.1162,57.2178)" /><g
           id="g4309"
           transform="translate(457.6533,44.6064)" /></g></g></g></svg>